<svg xmlns="http://www.w3.org/2000/svg" width="16" height="16" viewBox="0 0 16 16">
  <defs>
    <linearGradient id="paper" x1="4" y1="1.5" x2="11.8" y2="14.4" gradientUnits="userSpaceOnUse">
      <stop stop-color="#FFFFFF" stop-opacity=".98"/>
      <stop offset="1" stop-color="#DDE3EC" stop-opacity=".86"/>
    </linearGradient>
  </defs>
  <path d="M4.25 1.35h4.47l3.53 3.53v8.2c0 .92-.75 1.67-1.67 1.67H4.25c-.92 0-1.67-.75-1.67-1.67V3.02c0-.92.75-1.67 1.67-1.67Z" fill="url(#paper)" stroke="#68758A" stroke-opacity=".9" stroke-width=".72" stroke-linejoin="round"/>
  <path d="M8.72 1.52v2.3c0 .68.55 1.23 1.23 1.23h2.13" fill="none" stroke="#68758A" stroke-opacity=".8" stroke-width=".68" stroke-linejoin="round"/>
  <path d="M3.45 2.8c.22-.42.6-.65 1.15-.67h3.18" fill="none" stroke="#FFFFFF" stroke-width=".5" stroke-linecap="round" opacity=".9"/>
    <rect x="2.05" y="9.05" width="11.9" height="4.75" rx="2.18" fill="#DF81CB" fill-opacity=".9" stroke="#FFFFFF" stroke-opacity=".76" stroke-width=".45"/>
    <path d="M3.18 10.05c1.65-.62 6.38-.78 9.58-.1" fill="none" stroke="#FFFFFF" stroke-width=".48" stroke-linecap="round" opacity=".38"/>
    <text x="8" y="12.48" text-anchor="middle" fill="#111722" font-family="-apple-system,BlinkMacSystemFont,'Helvetica Neue',Arial,sans-serif" font-size="3.05" font-weight="750" letter-spacing="-.08">AUD</text>
</svg>
